{"title":"ABCD 2 - Any Body Can Dance (2015) Pre DvD Rip - x264 - [1CD] - ","uid":12044801,"size":731087935,"categoryP":"video","categoryS":"movies","magnet":"?xt=urn:btih:1e4c6874ef5025536585023ff4aaadd625104b5b&amp;dn=ABCD+2+-+Any+Body+Can+Dance+%282015%29+Pre+DvD+Rip+-+x264+-+%5B1CD%5D+-+&amp;tr=udp%3A%2F%2Ftracker.openbittorrent.com%3A80&amp;tr=udp%3A%2F%2Fopen.demonii.com%3A1337&amp;tr=udp%3A%2F%2Ftracker.coppersurfer.tk%3A6969&amp;tr=udp%3A%2F%2Fexodus.desync.com%3A6969","seeders":1,"leechers":0,"uploader":"SS132203","files":2,"time":1434871803,"description":"ABCD 2 - Any Body Can Dance (2015) Pre DvD Rip - x264 - [1CD] - Team IcTv Exclusive\n &lt;a href=&quot;\nhttp://imgsparrow.co/image/47&quot; rel=&quot;nofollow&quot; target=&quot;_NEW&quot;&gt;\nhttp://imgsparrow.co/image/47&lt;/a&gt;\n &lt;a href=&quot;\nhttp://imgsparrow.co/image/QS&quot; rel=&quot;nofollow&quot; target=&quot;_NEW&quot;&gt;\nhttp://imgsparrow.co/image/QS&lt;/a&gt;\n\nInfo : - \n\nAll Credit Goes To Team Telly (Thank Them Not Me)\n\nFormat : Matroska\nFormat version : Version 2\nFile size : 697 MiB\nDuration : 2h 31mn\nOverall bit rate : 645 Kbps\nEncoded date : UTC 2015-06-20 23:07:01\nWriting application : mkvmerge v7.7.0 ('Six Voices') 32bit built on Feb 28 2015 23:23:00\nWriting library : libebml v1.3.1 + libmatroska v1.4.2\nDURATION : 02:31:12.672000000\n\nVideo\nID : 1\nFormat : AVC\nFormat/Info : Advanced Video Codec\nFormat profile : &lt;a class=&quot;__cf_email__&quot; href=&quot;/cdn-cgi/l/email-protection&quot; data-cfemail=&quot;6d25040a052d215f435c&quot;&gt;[email&amp;#160;protected]&lt;/a&gt;&lt;script data-cfhash='f9e31' type=&quot;text/javascript&quot;&gt;\n/* &lt;![CDATA[ */!function(){try{var t=&quot;currentScript&quot;in document?document.currentScript:function(){for(var t=document.getElementsByTagName(&quot;script&quot;),e=t.length;e--;)if(t[e].getAttribute(&quot;data-cfhash&quot;))return t[e]}();if(t&amp;&amp;t.previousSibling){var e,r,n,i,c=t.previousSibling,a=c.getAttribute(&quot;data-cfemail&quot;);if(a){for(e=&quot;&quot;,r=parseInt(a.substr(0,2),16),n=2;a.length-n;n+=2)i=parseInt(a.substr(n,2),16)^r,e+=String.fromCharCode(i);e=document.createTextNode(e),c.parentNode.replaceChild(e,c)}t.parentNode.removeChild(t);}}catch(u){}}()/* ]]&gt; */&lt;/script&gt;\nFormat settings, CABAC : Yes\nFormat settings, ReFrames : 4 frames\nCodec ID : V_MPEG4/ISO/AVC\nDuration : 2h 31mn\nBit rate : 259 Kbps\nWidth : 640 pixels\nHeight : 252 pixels\nDisplay aspect ratio : 2.540\nFrame rate : 23.976 fps\nColor space : YUV\nChroma subsampling : 4:2:0\nBit depth : 8 bits\nScan type : Progressive\nBits/(Pixel*Frame) : 0.067\nStream size : 268 MiB (38%)\nWriting library : x264 core 146 r2538 121396c\nDefault : Yes\nForced : No\n\nAudio\nID : 2\nFormat : AC-3\nFormat/Info : Audio Coding 3\nMode extension : CM (complete main)\nCodec ID : A_AC3\nDuration : 2h 31mn\nBit rate mode : Constant\nBit rate : 384 Kbps\nChannel(s) : 6 channels\nChannel positions : Front: L C R, Side: L R, LFE\nSampling rate : 48.0 KHz\nBit depth : 16 bits\nCompression mode : Lossy\nStream size : 415 MiB (60%)\n\nScreens : - \n &lt;a href=&quot;\nhttp://imgsparrow.co/image/Zj&quot; rel=&quot;nofollow&quot; target=&quot;_NEW&quot;&gt;\nhttp://imgsparrow.co/image/Zj&lt;/a&gt;  &lt;a href=&quot;\nhttp://imgsparrow.co/image/Zr&quot; rel=&quot;nofollow&quot; target=&quot;_NEW&quot;&gt;\nhttp://imgsparrow.co/image/Zr&lt;/a&gt;  &lt;a href=&quot;\nhttp://imgsparrow.co/image/ZD&quot; rel=&quot;nofollow&quot; target=&quot;_NEW&quot;&gt;\nhttp://imgsparrow.co/image/ZD&lt;/a&gt;  &lt;a href=&quot;\nhttp://imgsparrow.co/image/ZG&quot; rel=&quot;nofollow&quot; target=&quot;_NEW&quot;&gt;\nhttp://imgsparrow.co/image/ZG&lt;/a&gt;  &lt;a href=&quot;\nhttp://imgsparrow.co/image/Ze&quot; rel=&quot;nofollow&quot; target=&quot;_NEW&quot;&gt;\nhttp://imgsparrow.co/image/Ze&lt;/a&gt;  &lt;a href=&quot;\nhttp://imgsparrow.co/image/Zg&quot; rel=&quot;nofollow&quot; target=&quot;_NEW&quot;&gt;\nhttp://imgsparrow.co/image/Zg&lt;/a&gt;  &lt;a href=&quot;\nhttp://imgsparrow.co/image/Zq&quot; rel=&quot;nofollow&quot; target=&quot;_NEW&quot;&gt;\nhttp://imgsparrow.co/image/Zq&lt;/a&gt;  &lt;a href=&quot;\nhttp://imgsparrow.co/image/Zz&quot; rel=&quot;nofollow&quot; target=&quot;_NEW&quot;&gt;\nhttp://imgsparrow.co/image/Zz&lt;/a&gt;  &lt;a href=&quot;\nhttp://imgsparrow.co/image/Z7&quot; rel=&quot;nofollow&quot; target=&quot;_NEW&quot;&gt;\nhttp://imgsparrow.co/image/Z7&lt;/a&gt;  &lt;a href=&quot;\nhttp://imgsparrow.co/image/Zk&quot; rel=&quot;nofollow&quot; target=&quot;_NEW&quot;&gt;\nhttp://imgsparrow.co/image/Zk&lt;/a&gt;\n &lt;a href=&quot;\nhttp://imgsparrow.co/image/N2&quot; rel=&quot;nofollow&quot; target=&quot;_NEW&quot;&gt;\nhttp://imgsparrow.co/image/N2&lt;/a&gt;","torrent":{"xt":"urn:btih:1e4c6874ef5025536585023ff4aaadd625104b5b","amp;dn":"ABCD+2+-+Any+Body+Can+Dance+%282015%29+Pre+DvD+Rip+-+x264+-+%5B1CD%5D+-+","amp;tr":["udp%3A%2F%2Ftracker.openbittorrent.com%3A80","udp%3A%2F%2Fopen.demonii.com%3A1337","udp%3A%2F%2Ftracker.coppersurfer.tk%3A6969","udp%3A%2F%2Fexodus.desync.com%3A6969"],"infoHash":"1e4c6874ef5025536585023ff4aaadd625104b5b","infoHashBuffer":{"type":"Buffer","data":[30,76,104,116,239,80,37,83,101,133,2,63,244,170,173,214,37,16,75,91]},"announce":[],"urlList":[]}}